<svg xmlns="http://www.w3.org/2000/svg" width="360" height="360" viewBox="0 0 360 360">
  <g fill="none" stroke="#397d68" stroke-width="2" stroke-linecap="round" stroke-linejoin="round" opacity=".22">
    <path d="M19 33c12-13 34 1 25 16-5 9-19 9-25 1-4-5-3-12 0-17Zm9 7 8 3-7 5Z"/>
    <path d="M83 16c8 2 13 8 12 15-1 9-11 15-20 11-8-4-10-14-5-21m8 4 11 9m-14-2 13-5"/>
    <path d="M135 30c5-9 14-13 21-8 8 5 7 16 0 22-7 6-18 4-22-4m9-7h9m-4-5v10"/>
    <path d="M207 13c-3 10 1 20 11 23 9 3 18-3 20-13-11 6-20 3-31-10Zm7 8 12 7"/>
    <path d="M282 25c7-10 23-7 25 5 2 10-9 19-19 15-8-3-11-12-6-20Zm8 3 7 12m-12-5 16-3"/>
    <path d="M332 10c7 4 9 13 4 20-5 8-18 8-23-1m7-5 7 3 3-8"/>
    <path d="M37 92c-10-13 5-28 18-19 11 8 6 26-8 27l-8 9-1-17Z"/>
    <path d="M99 75c5-5 13-5 18 0l9 9-9 9c-5 5-13 5-18 0l-9-9 9-9Zm5 3 8 12m-12-3 16-6"/>
    <path d="M174 75c6-5 15-5 21 0 7 7 5 19-4 23-9 4-19-2-20-12m7 0 6 6 7-13"/>
    <path d="M247 77c-8 2-12 9-9 16 3 8 14 11 22 5 7-6 5-18-3-22m-10 8c4-3 9 0 8 4-1 5-8 7-12 2"/>
    <path d="M313 78c12-6 25 6 19 18-5 10-19 11-26 2m9-7h10m-5-5v11"/>
    <path d="M13 149c10-3 18 1 20 9 2 9-6 18-16 17-9-1-14-10-10-18m8-2 10 11m-13 0 14-10"/>
    <path d="M71 132c10 2 17 11 15 21-2 11-14 17-25 12l-7 6 1-12c-6-9 1-24 16-27Z"/>
    <path d="M130 151c9-16 27-13 31 1 3 12-9 23-21 19-9-3-14-12-10-20Zm9 1 14 8m-15 1 15-10"/>
    <path d="M211 133c10-1 18 7 17 17-1 9-10 15-19 13-8-2-13-10-10-18m6 1 14 5m-11-11 6 19"/>
    <path d="M275 145c6-8 17-10 24-4 8 7 6 20-3 25-10 5-22-2-22-13m8-3h11m-5-6v13"/>
    <path d="M337 130c-9 9-8 23 3 30 7 5 15 3 20-2m-18-20 9 12m-13 0 17-10"/>
    <path d="M25 214c-1-11 8-20 19-18 11 2 16 15 10 24-7 10-23 8-28-3m8-8 13 5m-10-10 4 19"/>
    <path d="M93 204c8-8 22-6 27 4 5 11-4 24-16 24-12 0-21-13-15-24m8 1 15 13m-18 0 19-14"/>
    <path d="M163 202c12-4 24 8 19 20-4 11-20 14-28 5-7-8-3-21 9-25Zm-1 8 12 8m-14 2 16-11"/>
    <path d="M237 209c-7-12 7-25 19-18 10 6 9 21-1 27-8 5-19 1-22-7m8-7 9 9m-12-1 15-8"/>
    <path d="M306 199c11-3 21 5 21 16 0 12-13 20-24 14-10-5-12-19-4-27m7 4 10 15m-15-5 18-7"/>
    <path d="M54 276c4-10 17-15 26-9 10 7 8 22-2 28-10 6-24-1-24-13m8-2 10 7m-10 0 10-12"/>
    <path d="M131 264c11-5 24 4 23 16-1 12-15 19-25 12-9-6-9-21 2-28Zm3 7 12 13m-15-1 16-10"/>
    <path d="M204 278c1-11 12-18 22-14 11 4 14 18 6 27-8 9-24 6-29-5m9-10 11 7m-13 1 15-12"/>
    <path d="M282 267c9-7 23-2 26 9 3 12-9 23-21 19-11-3-15-17-8-25m7 2 12 14m-16-2 18-10"/>
    <path d="M332 283c9-3 18 3 19 12 1 10-9 18-19 14m6-18 7 10m-12-2 14-5"/>
    <path d="M16 329c8-8 21-6 26 4 4 9-3 20-13 21m-6-17 11 8m-13 0 15-12"/>
    <path d="M95 329c10-8 25-2 26 11 1 12-12 22-23 17-10-4-14-17-7-25m9 4 12 10m-15-1 18-9"/>
    <path d="M176 328c7-7 20-6 25 3 6 10-1 23-13 24-11 1-20-10-17-20m9 2 11 8m-13 0 16-11"/>
    <path d="M255 328c9-5 21 0 24 10 3 11-7 22-18 20-10-2-16-13-11-22m8-1 12 13m-15-2 17-11"/>
  </g>
</svg>
